<?xml version="1.0" encoding="iso-8859-1"?>
<!-- Uploaded to: SVG Repo, www.svgrepo.com, Generator: SVG Repo Mixer Tools -->
<!DOCTYPE svg PUBLIC "-//W3C//DTD SVG 1.1//EN" "http://www.w3.org/Graphics/SVG/1.1/DTD/svg11.dtd">
<svg fill="#000000" height="800px" width="800px" version="1.1" id="Capa_1" xmlns="http://www.w3.org/2000/svg" xmlns:xlink="http://www.w3.org/1999/xlink" 
	 viewBox="0 0 293.893 293.893" xml:space="preserve">
<path d="M246.036,12.178C241.526,4.666,233.278,0,224.511,0c-4.534,0-8.993,1.239-12.895,3.581
	c-4.728,2.839-21.015,16.874-25.808,30.335c-5.943-3.579-12.913-5.642-20.36-5.642h-47.198c-21.691,0-39.504,17.495-39.504,39
	c0,13.219,6.684,24.915,16.684,31.972v78.993l-37.389,36.796c-18.147,17.779-18.362,46.903-0.582,65.05
	c9.009,9.195,20.971,13.808,32.902,13.808c11.614,0,23.259-4.372,32.21-13.143l51.207-50.322
	c8.831-8.652,13.652-20.495,13.652-32.858V99.368c11-7.043,17.191-18.799,17.191-32.094c0-4.134-0.575-8.117-1.782-11.858
	c0.192,0.003,0.42,0.011,0.615,0.011c11.338,0,27.01-4.653,33.966-8.83c5.745-3.449,9.813-8.929,11.436-15.431
	C250.481,24.665,249.485,17.921,246.036,12.178z M118.251,53.274h47.198c8.04,0,14.339,6.149,14.339,14s-6.299,14-14.339,14h-47.198
	c-8.04,0-14.338-6.149-14.338-14S110.211,53.274,118.251,53.274z M125.992,232.48l-7.939,9.767c-0.845,1.039-1.272,2.355-1.2,3.691
	l0.684,12.57c0.044,0.814-0.328,1.596-0.987,2.075c-0.66,0.479-1.518,0.592-2.278,0.298l-11.745-4.533
	c-1.249-0.481-2.632-0.481-3.881,0l-11.743,4.533c-0.761,0.294-1.618,0.181-2.278-0.298c-0.659-0.48-1.031-1.261-0.987-2.075
	l0.683-12.57c0.072-1.337-0.355-2.652-1.199-3.691l-7.939-9.767c-0.515-0.633-0.673-1.483-0.421-2.259
	c0.252-0.775,0.88-1.37,1.668-1.58l12.165-3.235c1.293-0.345,2.412-1.158,3.14-2.281l6.836-10.569
	c0.442-0.685,1.202-1.099,2.018-1.099s1.575,0.414,2.019,1.099l6.836,10.569c0.728,1.123,1.847,1.937,3.14,2.281l12.166,3.235
	c0.787,0.21,1.416,0.805,1.668,1.58C126.665,230.996,126.506,231.847,125.992,232.48z M167.638,142.711l-7.94,9.768
	c-0.845,1.039-1.272,2.354-1.199,3.691l0.683,12.569c0.044,0.814-0.328,1.595-0.987,2.074c-0.66,0.479-1.518,0.592-2.278,0.298
	l-11.744-4.532c-1.249-0.482-2.632-0.482-3.881,0l-11.744,4.532c-0.761,0.294-1.618,0.182-2.278-0.298
	c-0.66-0.48-1.031-1.26-0.987-2.074l0.683-12.569c0.072-1.337-0.355-2.652-1.199-3.691l-7.94-9.769
	c-0.515-0.633-0.673-1.482-0.421-2.258c0.252-0.775,0.88-1.371,1.668-1.58l12.165-3.236c1.293-0.345,2.412-1.158,3.14-2.281
	l6.836-10.57c0.443-0.685,1.203-1.098,2.019-1.098c0.815,0,1.575,0.413,2.019,1.098l6.835,10.57c0.728,1.123,1.847,1.936,3.14,2.281
	l12.167,3.236c0.788,0.209,1.416,0.805,1.668,1.58C168.311,141.227,168.152,142.078,167.638,142.711z M234.314,27.532
	c-0.652,2.614-2.284,4.817-4.594,6.205c-4.487,2.693-17.476,6.689-26.225,6.689c-1.998,0-3.234-0.207-3.943-0.394
	c1.071-5.393,12.49-19.212,19.786-23.592c1.569-0.942,3.358-1.441,5.173-1.441c3.584,0,6.823,1.832,8.665,4.899
	C234.563,22.208,234.967,24.919,234.314,27.532z"/>
</svg>